<svg xmlns="http://www.w3.org/2000/svg" xmlns:xlink="http://www.w3.org/1999/xlink" width="193.315" height="41.812" viewBox="0 0 193.315 41.812">
  <defs>
    <clipPath id="clip-path">
      <rect id="Rectangle_20286" data-name="Rectangle 20286" width="193.315" height="41.812" fill="none"/>
    </clipPath>
  </defs>
  <g id="Group_7455" data-name="Group 7455" transform="translate(0 0)">
    <g id="Group_7454" data-name="Group 7454" transform="translate(0 0)" clip-path="url(#clip-path)">
      <path id="Path_12072" data-name="Path 12072" d="M141.74,36.245a7.652,7.652,0,0,0-6.479,6.6c-.435,3.73-.124,7.492-.139,11.241a1.355,1.355,0,0,0,1.505,1.481c1.053-.024,1.492-.654,1.516-1.617.029-1.175.007-2.35.007-3.665.573.293.989.521,1.418.723a7.694,7.694,0,0,0,8.981-1.652,7.826,7.826,0,0,0-6.81-13.108m1.129,12.482a4.708,4.708,0,0,1-4.715-4.83,4.831,4.831,0,0,1,4.863-4.744,4.966,4.966,0,0,1,4.693,4.961,4.8,4.8,0,0,1-4.841,4.613" transform="translate(-86.064 -23.045)" fill="#003e8f"/>
      <path id="Path_12073" data-name="Path 12073" d="M240.08,36.23a7.7,7.7,0,0,0-8.517,6.389c-.563,3.8-.176,7.656-.183,11.486a1.385,1.385,0,0,0,1.532,1.472,1.434,1.434,0,0,0,1.508-1.507c.079-1.183.02-2.376.02-3.825a9.068,9.068,0,0,0,4.387,1.549A7.813,7.813,0,0,0,240.08,36.23m-.821,12.51a4.651,4.651,0,0,1-4.806-4.714,4.762,4.762,0,0,1,4.718-4.864,4.964,4.964,0,0,1,4.8,4.713,4.776,4.776,0,0,1-4.715,4.865" transform="translate(-147.398 -23.056)" fill="#003e8f"/>
      <path id="Path_12074" data-name="Path 12074" d="M498.146,36.24a7.83,7.83,0,0,0-8.072,7.565c-.061,3.307-.007,6.616-.015,9.923,0,1.051.3,1.862,1.517,1.879,1.239.017,1.529-.833,1.541-1.86.013-1.087,0-2.174,0-3.49a8.729,8.729,0,0,0,4.491,1.575,7.8,7.8,0,0,0,.536-15.593m-.163,12.541a4.679,4.679,0,0,1-4.86-4.675,4.728,4.728,0,1,1,9.452-.1,4.594,4.594,0,0,1-4.593,4.772" transform="translate(-312.344 -23.097)" fill="#003e8f"/>
      <path id="Path_12075" data-name="Path 12075" d="M190.643,36.2a7.864,7.864,0,0,0-8.651,5.93,22.656,22.656,0,0,0-.227,4.37c0,1.2.029,2.173-.008,3.141s.125,1.823,1.193,2.069c1.087.251,1.58-.51,1.946-1.374a4.72,4.72,0,0,1,4.679-3c.616-.009,1.235-.02,1.85.018.911.057,2.033-.389,2.674.225.543.521.124,1.6.182,2.428.07,1.01.529,1.752,1.589,1.738s1.5-.775,1.5-1.794c0-2.071.038-4.143-.018-6.212a7.9,7.9,0,0,0-6.7-7.541m2.612,8.159c-.964-.051-1.935.022-2.9-.019a8.722,8.722,0,0,0-5.408,1.288c-.441-3.7,1.118-6.007,4.2-6.422a4.74,4.74,0,0,1,5.1,4.1c.085.845-.184,1.1-.994,1.058" transform="translate(-115.845 -23.036)" fill="#003e8f"/>
      <path id="Path_12076" data-name="Path 12076" d="M291.272,38.17a7.685,7.685,0,0,0-9.194-.793,7.867,7.867,0,0,0-3.468,8.589,8,8,0,0,0,7.2,5.861A1.615,1.615,0,0,0,287.4,51.1a1.509,1.509,0,0,0-.019-1.628c-.4-.656-1.106-.67-1.755-.741a4.655,4.655,0,0,1-3.609-2.37c-.36-.587-.277-.844.479-.828,1.587.034,3.175.01,4.762.008,1.631,0,3.263.013,4.895-.007a1.578,1.578,0,0,0,1.767-1.809,7.441,7.441,0,0,0-2.649-5.553m-8.822,4.381c-.868.009-.693-.364-.431-.873a4.853,4.853,0,0,1,4.373-2.48,4.923,4.923,0,0,1,4.314,3.342c-2.89,0-5.573-.017-8.257.01" transform="translate(-177.43 -23.082)" fill="#003e8f"/>
      <path id="Path_12077" data-name="Path 12077" d="M359.349,42.476a22.291,22.291,0,0,0-3.3-.1,1.594,1.594,0,0,1-1.82-1.5c-.11-.909.689-1.557,1.832-1.609a18.481,18.481,0,0,0,3.033-.111,1.405,1.405,0,0,0,1.275-1.571,1.38,1.38,0,0,0-1.448-1.417c-1.146-.016-2.3-.05-3.439.022a4.637,4.637,0,0,0,.221,9.258c.97.021,1.942-.018,2.912.011,1.262.038,1.994.678,1.91,1.7-.1,1.159-.851,1.524-1.926,1.512-2.03-.022-4.06-.029-6.089.006a1.5,1.5,0,0,0-1.662,1.519c-.005,1.047.672,1.578,1.72,1.586,1.1.009,2.206,0,3.309,0,1.015,0,2.031.026,3.045-.005a4.657,4.657,0,0,0,.43-9.3" transform="translate(-223.622 -23.039)" fill="#003e8f"/>
      <path id="Path_12078" data-name="Path 12078" d="M416.387,48.868a16.153,16.153,0,0,0-1.978-.082,4.727,4.727,0,1,1-.055-9.451c.529-.019,1.061.018,1.589-.015.97-.062,1.63-.573,1.618-1.562a1.453,1.453,0,0,0-1.636-1.513c-.353,0-.706,0-1.06,0a7.951,7.951,0,0,0-6.953,3.372,7.818,7.818,0,0,0-.032,8.823,8.541,8.541,0,0,0,8.514,3.382A1.456,1.456,0,0,0,417.57,50.4a1.382,1.382,0,0,0-1.183-1.532" transform="translate(-259.115 -23.102)" fill="#003e8f"/>
      <path id="Path_12079" data-name="Path 12079" d="M330.755,36.191a7.873,7.873,0,0,0-7.067,5.63c-.474,1.608-.164,3.244-.273,4.618,0,1.347.032,2.451-.009,3.552-.041,1.068.426,1.775,1.475,1.78s1.52-.7,1.5-1.763c-.032-1.719-.021-3.439-.005-5.158.03-3.4,1.37-5.063,4.659-5.647.987-.176,1.626-.628,1.574-1.585-.056-1.048-.81-1.441-1.853-1.427" transform="translate(-206.13 -23.067)" fill="#003e8f"/>
      <path id="Path_12080" data-name="Path 12080" d="M448.448,48.75c-3.032-.461-4.53-2.185-4.551-5.279-.012-1.762.017-3.524.042-5.286.015-1.051-.3-1.878-1.494-1.909-1.223-.032-1.531.794-1.514,1.852s0,2.115,0,3.172c0,.97-.014,1.939,0,2.908a7.838,7.838,0,0,0,7.162,7.649,1.686,1.686,0,0,0,2.018-1.425c.017-1.086-.692-1.534-1.669-1.683" transform="translate(-281.039 -23.121)" fill="#003e8f"/>
      <path id="Path_12081" data-name="Path 12081" d="M472.631,39.134c-1.193,0-1.552.806-1.549,1.867.006,1.766,0,3.532,0,5.3,0,1.81.015,3.62-.005,5.43-.013,1.09.4,1.872,1.558,1.853,1.082-.018,1.5-.8,1.5-1.805q.01-5.43-.006-10.859c0-.985-.367-1.786-1.5-1.782" transform="translate(-300.255 -24.943)" fill="#003e8f"/>
      <path id="Path_12082" data-name="Path 12082" d="M472.7,28.688a1.529,1.529,0,1,0-.155-3.054,1.53,1.53,0,0,0,.155,3.054" transform="translate(-300.303 -16.33)" fill="#003e8f"/>
      <path id="Path_12083" data-name="Path 12083" d="M9.282,41.81A11.2,11.2,0,0,0,17,38.167c5.008-4.945,9.967-9.941,14.944-14.918a4.859,4.859,0,0,0,.529-.569,1.335,1.335,0,0,0-.087-1.854,1.278,1.278,0,0,0-1.834-.13,6.4,6.4,0,0,0-.789.72Q22.575,28.6,15.386,35.8a13.524,13.524,0,0,1-3.628,2.577c-4.686,2.31-9.322-2.5-8.864-6.053a9.748,9.748,0,0,1,3-5.738Q16.979,15.446,28.111,4.353a5.076,5.076,0,0,1,1.444-1.132,4.637,4.637,0,0,1,5.538,1.849c1.4,1.934,1.266,3.7-.51,5.485q-9.443,9.478-18.916,18.927A5.187,5.187,0,0,1,14.254,30.5a1.862,1.862,0,0,1-2.306-.435,1.8,1.8,0,0,1-.318-2.311,5.488,5.488,0,0,1,.971-1.2Q18.175,20.978,23.747,15.4a7.711,7.711,0,0,0,.721-.788,1.317,1.317,0,0,0-.048-1.777,1.335,1.335,0,0,0-1.761-.275,3.254,3.254,0,0,0-.815.679q-5.392,5.41-10.777,10.828a13.307,13.307,0,0,0-1.576,1.716,4.84,4.84,0,0,0,2.472,7.568c2.188.7,3.98-.175,5.468-1.65q9.745-9.659,19.409-19.4a6.294,6.294,0,0,0,1.717-2.782c.889-3.25-.6-6.544-3.808-8.458a6.665,6.665,0,0,0-8.536,1.091Q14.856,13.506,3.569,24.924A11.243,11.243,0,0,0,0,32.24c.117,5.383,4.451,9.66,9.282,9.57" transform="translate(0 0)" fill="#003e8f"/>
    </g>
  </g>
</svg>
