<?xml version="1.0" encoding="UTF-8"?><svg id="Layer_1" xmlns="http://www.w3.org/2000/svg" viewBox="0 0 2272.04 693.29"><defs><style>.cls-1{fill-rule:evenodd;stroke-width:0px;}</style></defs><path class="cls-1" d="M1664.2,236.78c-8.19,0-17.66,1.9-24.89,1.32-7.45-.6-72.96,3.29-78.2,4.04-8.4,1.2-17.74.31-26.21,1.51-14.4,2.05-37.84,1.29-52.3,3.15-22.28,2.86-39.07-5.9-27.69,19.06,4.5,9.87,7.29,9.35,17.59,8.33,15.57-1.54,31.09-6.55,45.81-9.64,15.32-3.21,87.41-12.29,98.6-12.29,9.84,0,26.91-1.34,26.91,9.78,0,2.71-17.42,28.59-20.23,32.77-10.9,16.22-20.52,33.24-30.69,50.02-8.3,13.69-24.57,60.92-29.28,78.33-3.17,11.75,1.55,38.69-5.14,48.66-3.57,5.31-8.89,9.1-13.54,13.37-8.74,8.03-21.1,16.07-31.54,22.27-4.32,2.57-31.27,19.51-34.3,19.51-28.37,0-19.66-11.78-35.87-25.28l-30.65-24.79c-10.18-8.12-18.48-17.42-28.77-25.86-5.24-4.3-10.61-7.48-15.41-12.31-5.94-5.98-7.53-8.41-7.53-21,0-6.98,7.12-12.97,7.34-22.83-12.51-2.91-10.88-10.23-27.54,6.71-5.37,5.46-6.76,9.77-10.65,16.26-9.9,16.5,3.48,27.58-27.05,27.58-.6-2.26-1.57-3.19-2.32-5.83-5.36-18.8,4.08-46.3-34.09-55.59-5.91-1.44-22.74-5.42-28.01-5.42,6.42-9.58,7.42-11.22,10.01-25.04,1.67-8.91,5.42-24.53-7.85-20.13-13.41,4.44-13.72,3.63-20.35,14.76-13.25,22.23-26.64,43.42-38.34,66.83-7.55,15.12-18.31,29.78-28.04,42.89-20.07,27.04-46.36,47.95-76.11,64.93-14.48,8.26-30.35,17.5-45.71,24.41-7.09,3.19-17.13,7.48-23.81,11.25-10.84,6.12-18.69,8.41-33.17,8.41-12.18,0-22.11-8.31-29.85-13.36-23.66-15.46-15.25-44.58-8.84-66.89,2.77-9.65,7.36-28.37,11.48-35.81,7.14-12.91,9.83-14.53,16.5-30.79,2.53-6.17,5.14-9.98,8.01-15.63,1.61-3.17,2.27-4.79,3.41-8l11.99-23.88c3.48-5.31,6.3-8.5,9.66-13.98,17.95-29.29,27.4-45.44,41-77.21,7.05-16.45,43.52-62.81,56.77-85.09,3.61-6.07,4.63-9.02,8.94-14.7,3.78-5,5.59-9,10.14-13.5,9.35-9.25,13.05-16.65,20.47-26.81,5.02-6.87,11.11-12.2,15.8-19.26,4.71-7.09,10.72-13.04,16.73-19.14,4.47-4.53,8.39-6.37,13.49-10.16,4.67-3.47,9.13-6.83,13.64-10l27.71-19.58c1.99,1.34,10.6,8.96,10.6,11.41,0,19.71-2.88,30.66-4.89,48.91-4.06,36.77-15.55,74.65-27.96,108.19-4.17,11.28-7.41,21.97-11.76,33.08-9.04,23.07-15.53,45.87-21.05,70.26-1.43,6.32-5.64,36.1-6.91,38.75,7.52-1.75,21.61-24.52,25.55-32.34,6.52-12.94,22.91-70.12,27.99-87.78,4.4-15.3,8.11-29.98,12.61-45.27,6.49-22.08,19.71-72.3,21.06-94.7.98-16.27,4.2-33.8,4.12-52.13-.06-11.99,2.41-13.83-1.83-25.07-8.26-21.86-23.28-13.69-38.16-5.14-3.7,2.13-5.69,2.74-9.12,5.55-8.39,6.89-17.31,12.97-25.28,20.37-3.48,3.23-4.22,3.03-7.48,7.19-1.81,2.3-5.23,6.35-7.34,8.15-8.6,7.33-47.31,57.3-54.19,66.48l-23.49,36.84c-8.01,13.46-15.6,24.02-23.9,36.43l-46.95,73.71c-18.77,31.93-33.79,65.76-51.96,98.05-3.71,6.6-7.51,12.47-10.91,19.25-6.89,13.72-13.52,26.23-19.85,40.48-8.72,19.64-24.29,41.76-26.03,64.46-1.23,15.99.19,28.16,5.8,42.22,1.04,2.62,2.56,3.6,4.31,6.28,2.44,3.74,1.99,7.12,4.97,9.71,1.83,1.6,2.85,1.38,4.84,2.5,6.79,3.82,18.37,21.58,51.8,21.58,16.67,0,31.51-8.2,44.16-12.91,7.07-2.64,13.8-5.19,20.23-8.31,4.39-2.13,12.13-3.18,21.5-7.85,12.01-5.99,24.47-17.67,35.71-22.18,13.4-5.37,22.5-17.32,33.32-24.57,1.66,1.11,9.72,8.21,10.19,10.07,1.23,4.82-2.99,22.31.14,32.64,1.01,3.33.6,4.9,1.94,7.75l3.57,7.07c4.87,12.52,14.93,24.81,31.45,24.81h8.15c15.17,0,40.32-15.11,49.63-22.12,21.14-15.94,36.11-36.05,47.95-59.67,5.71-11.39,6.19-11.96,15.14-20.74,11.56-11.34,26.42-23.86,39.77-32.79,5.33,1.42,35.04,24.74,40.6,29.52,7.28,6.26,31.97,27.51,31.97,38.14s-3.17,8.73-17.69,17.37l-18.85,11.32c-7.42,4.76-31.96,19.67-31.96,29.19,0,4.76,4.4,10.2,7.42,12.14,5.75,3.7,10.12,1.37,17.52,2.87,13,2.64,16.18,12.7,30.51,12.7s23.56-18.74,37.61-29.25c13.72-10.25,27.45-16.45,43.91-23.76,14.94-6.63,29.68-15.87,42.75-24.92,13.48-9.34,25.57-20,38.81-28.86l9.64,17.26c22.17,44.33,38.75,47.87,81.15,24.6,6.05-3.32,10.83-7.02,16.82-10.08,4.94-2.52,16.97-8.14,22.03-8.14,13.03,0,25.8,34.24,61.15,34.24,9.74,0,21.04-5.21,29.82-7.68,5.92-1.67,9.01-4.39,13.15-5.64,1.65-.5,13.39.98,17.01,1.45,11.91,1.54,22.85,1.92,33.14,4.37,10.69,2.54,19.58,5.31,30.33,7.99,20.69,5.17,41.05,8.94,61.17,14.66l31.24,6.26c10.44,1.98,22.41,2.91,33.53,4.8,21.42,3.63,42.14,8.51,62.97,12.86,21.04,4.39,42.41,8.05,63.61,12.22,32.3,6.35,67.06,10.52,100.14,13.2,11.01.89,24.63,1.42,35.96,2.36,1.54-1.47,3.69-3.92,4.89-5.71-8.78-5.88-11.25-7.29-24.31-9.12-28.42-3.98-56.7-10.28-84.21-16.08-38.69-8.17-68.58-17.32-109.4-25.13-28.15-5.38-54.06-14.57-82.36-17.92-7.74-.92-5.93.04-13.91-2.4-21.54-6.59-45.64-9.78-66.25-17.73-7.52-2.9-17.07-6.74-24.63-8.8-12.99-3.54-23.83-1.57-23.83-10.42,0-12.53,26.09-53.38,26.09-78.26v-9.78c0-25.15-18.97-58.52-42.59-63.4-7.88-1.63-22.77-5.89-29.98-5.89-19.1,0-46.37,20.34-57.9,29.34-11.78,9.19-26.26,38.95-31.8,55.43-3.77,11.19-3.7,24.09-8.93,34.28-9.72,18.94-32.02,27.69-48.48,39.57-5.38,3.88-20.4,16.65-27.37,16.65-15.49,0-23.52-20.36-28.18-32.15-5.61-14.19-6.88-7.51-6.88-21.65,0-3.38,17.29-23.6,21.4-27.51,8.32-7.91,14.82-18.05,21.69-27.22,6.87-9.16,13.29-19.64,20.39-28.52,18.32-22.91,35.81-47.74,49.03-74.08,7.92-15.78,20.17-28.46,30.75-42.63,7.03-9.41,15.07-18.79,21.44-28.29,5.18.43,7.49,2.41,13.82,2.48,37.96.44,79.08-.27,115.67,3.38,9.17.91,19.74,2.25,29.87,3.56,20.36,2.64,38.6,5.09,58.82,8.85,7.81,1.46,22.23,4.55,29.7,4.55-4.66-6.95-14.58-8.45-23.93-11.13-16.66-4.79-70.41-18.98-85.33-20.67-16.37-1.85-50-5.37-65.24-5.7-10.6-.23-21.65-1.88-32.58-2.48-8.29-.45-26.94-.99-26.94-8.93,0-2.47,31.32-52.37,35.21-58.54,5.98-9.48,22.54-34.64,26.76-44.17,3.44-7.77,2.18-8.11,7.81-15.83l53.88-87.18c5.51-10.89-18.08-17.12-23.37-21.71-12.09,8.09-31.56,26.93-43.41,37.31-23.72,20.79-69.4,76-87.86,102.1-3.73,5.27-7.41,10.36-11.32,15.58l-22.89,31.74c-5.98,9.74-33.58,45.39-34.29,48.05M1744.93,236.78c-37.56,2.36-22.32,2.46-57.91-.66l23.03-39.92c3.42-3.68,7.46-6.85,10.53-10.66,6.53-8.11,12.45-14.96,18.87-23.52,10.86-14.46,34.8-50.12,45.18-60.81,3.11-3.2,9.7-4.57,14.08-7.12,17.57-10.22,29.33-26.7,48.14-36.65-.31,13.86-17.94,36.63-22.49,47.62-10.34,24.94-49.25,82.02-65.72,109.56-4.51,7.54-9.67,14.52-13.71,22.16ZM1588.37,447.91l-8.78-6.76c1.51-20.16,11.98-49.86,18.91-66.26,8.16-19.31,48.38-92.56,62.64-108.57,19.91-22.35,21.13-11.46,46.3-11.63,9.48-.06,11.79,1.66,18.74,3.28-31.19,46.56-66.41,101.02-99.83,145.57-9.18,12.24-26.36,36.6-37.97,44.37ZM1802.82,389.22c18.91,0,35.88,17.84,35.88,36.68,0,12.63-12.11,35.66-17.34,47.88-11.68,27.26-23.24,57.87-55.14,27.03-18.72-18.1-15.58-40.5-5.44-65.59,7.24-17.91,18.33-46,42.05-46ZM1235.31,428.35c0-8.97,13.47-11.41,22.02-11.41,19.54,0,18.2,24.46,9.78,24.46-3.16,0-31.8-4.23-31.8-13.04ZM1188.02,568.56h-2.45c-10.1,0-14.84-16.78-15.46-26.94-1.49-24.28,7.45-45.29,16.4-66.69,14.71-35.18,12.55-27.79,43.82-18.77,8.13,2.34,18.11,4.91,25.5,7.92,8.76,3.57,15.42,6.7,12.74,18.69-1.9,8.48-5.92,16.26-9.25,24.19-7.29,17.38-12.02,29.01-25.98,40.06-9.99,7.91-28.45,21.54-45.32,21.54Z"/><path class="cls-1" d="M108.45,133.25c0,9.5,6.86,18.75,16.31,18.75,14.82,0,14.03-47.66,62.23-52.79,11.17-1.19,37.43,8.03,45.99,11.45,14.42,5.77,25.73,12.34,36.93,20.96,34.35,26.42,54.77,64.75,65.95,106.89,11.57,43.61,11.64,85.7-19.07,118.53-13.67,14.62-39.36,28.12-67.28,28.12-15.77,0-26.62-3.23-38.95-6.71-10.6-2.99-30.35-4.36-30.35-16.94,0-7.21,16.87-43.77,20.27-52.29,13-32.59,27.27-71.42,42.78-102.34,4.69-9.35,21.75-44.93,21.75-53.25,0-5.82-12.36-9.78-18.75-9.78-11.65,0-13.8,12.62-17.23,21.08l-33.09,82.68c-11.19,27.98-21.62,55.38-31.52,84.25-10.55,30.77-16.66,25.11-46.99,16.6-28.77-8.08-55.57-13.04-88.07-13.04-16,0-29.35,5.39-29.35,21.19,0,24.21,35.21,46.4,50.67,57.76,24.91,18.3,63.48,27.54,63.48,46.59,0,7.01-7.3,22.46-10.05,28.26-8.36,17.61-14.96,36.68-22.84,54.61l-35.13,81.45c-5.3,12.55-22.48,47.25-22.48,58.23,0,7.31,7.07,9.78,13.05,9.78,10.05,0,13.91-16.58,18.09-23.49,13.26-21.89,29.39-63.49,37.66-87.89,9.16-27.05,23.87-63,37.77-87.78,3.85-6.87,10.51-22.57,19.82-22.57,18.13,0,63.67,32.39,105.09,40.85,12.71,2.6,42.41-5.79,45.31,13.38.99,6.54-3.63,18.3-3.63,26.47,0,17.85,11.16,33.42,28.54,33.42,13.34,0,24.07-8.89,32.96-14.32,8.11-4.95,20.97-14.23,25.71-21.57,6.36-9.84,13.03-18.37,19.59-27.7,6.97-9.91,12.92-20.37,26.92-20.37,8.4,0,1.63,8.45,1.63,16.3,0,5.94,3.73,20.37,5.27,26.53,2.62,10.5,4.31,15.26,10.09,22.52,13.39,16.81,26.94,13.66,44.31,3.28,12.16-7.26,7.08-2.88,19.77-12.85,5.98-4.7,12.75-9.35,19.05-13.56,9.44-6.31,31.33-23.47,43.39-23.47,7.71,0,13.37,7.34,27.72,7.34,6.17,0,9.33-1.25,15.46-1.67,17.98-1.22,30.65-11.65,39.99-13.82,5.96,8.91,16.7,16.8,31.22,14.94,8.65-1.11,12.78-1.42,19.33-4.35,21.66-9.69,10.77-10.92,40.29-3.59,7.15,1.78,12.28,3.5,18.96,5.5,12.84,3.85,23.59,8.63,36.44,12.48,11.63,3.49,68.4,19.47,79.63,18.21l17.13-1.58c-.37-4.48-9.63-11.09-14.05-12.09-21.35-4.82-84.62-23.39-99.47-33.43-29.57-19.97-20.86-43.65-15.32-74.38,3.17-17.54,8.98-23.05,8.98-44.83,0-13.09-6.81-30.04-12.67-37.88-6.44-8.61-22.26-14.3-37.07-14.3-20.13,0-43.09,12.17-57.21,23.51-6.66,5.35-17.3,24.47-20.73,33.08-2.49,6.26-6.46,13.33-8.21,18.69-2.4,7.38-4.14,13.24-6.91,19.99-1.11,2.69-8.87,17.6-8.87,18.85,0,.9,7.39,12.6,16.33.02,12.44-17.5,18.84-40.68,34.02-55.66,10.15-10.03,20.42-18.84,35.66-23.86,7.93-2.61,17.3-3.96,23.1,1.4,9.22,8.53,8.31,23.2,8.31,35.71,0,17.57-16.52,49.98-26.42,64.07-1.74,2.48-15.21,11.48-18.42,11.74,0-18.6,2.22-12.02,8.85-28.65,2.32-5.83,10.72-23.72,10.72-28.42,0-12.74-19.43-18.18-32.48-9.65-14.61,9.55-27.02,40.02-34,57.31-1.93,4.79-2.23,4.21-6.43,6.62-8.15,4.67-27.85,15.83-37.17,15.83-5.35,0-14.8-4.68-17.12-8.15,4.6-19.73,44.85-30.29,44.85-83.97,0-12.44-7.33-39.94-22.02-39.94-21.08,0-38.01,15.35-47.94,31.14-6.66,10.59-9.05,14.18-12.75,27.19-3.53,12.4-3.84,20.12-5.59,34.35-.63,5.11-.8,12.53-1.45,18.12-.67,5.74-2.25,11.05-3.48,16.9-1.42,6.73-3.93,6.74-9.18,10.38-4.24,2.95-7.91,5.67-11.75,8.63-7.57,5.83-14.37,12.09-22.32,17.63-5.78,4.03-18.05,13.37-26.58,13.37-9.96,0-10.6-16.62-10.6-25.27,0-3.98,7.48-29.1,9.07-34.14,3.44-10.89,7.69-22.16,11.21-32.81,3.72-11.23,26.81-63.48,2.55-63.48-16.73,0-27.44,10.78-33.7,23.37-2.78,5.58-4.2,7.54-7.23,12.34-17.18,27.15-15.21,20.86-33.83,42.81-11.7,13.8-23.32,28.2-33.7,42.94-2.49,3.54-5.4,7.32-8.12,10.63-2.54,3.09-7.08,5.93-10.42,9.15-5.3,5.1-16.97,13.38-26.3,11.2,0-28.3,9.69-33.62,18.3-55.07,7.47-18.62-2.47-22.35,11.33-48.18,12.91-24.15,26.08-46.97,38.58-71.49,17.23-33.81,33.9-61.5,54.91-91.03,9.89-13.91,19.83-28.68,29.01-43.55,9.6-15.53,17.13-31.07,27.72-45.65,21.71-29.88,27.81-35.66,50.7-58.55,5.02-5.02,14.88-12.81,14.88-21.81s-8.22-18.75-17.12-18.75c-14.93,0-24.08,13.92-31.17,22.64-8.04,9.89-15.68,20.27-22.81,31-29.03,43.71-56.95,88.19-82.76,134.1-13,23.12-26.68,45.9-38.84,69.59-9.08,17.69-19.44,34.6-28.27,52.44-2.8,5.66-6.6,12.56-9.74,17.98-10.05,17.35-25.71,56.94-41.66,66.77-21.34,13.15-67.85-2.11-86.63-10.33-18.76-8.22-35.8-17.86-53.58-27.13-5.64-2.94-13.86-5.71-13.86-13.86,0-13.93,8.32-34.24,24.46-34.24,25.84,0,44.82,16.3,87.25,16.3,13.08,0,31.6-8.49,40.77-13.04,24.03-11.92,40.84-31.03,52.74-54.88,11.52-23.1,10.86-43.77,10.86-69.03,0-46.35-27.05-105-55.23-137.17-16.65-19.01-29.48-30.89-51.84-44.37-15.05-9.07-48.48-24.71-71.5-24.71h-11.42c-34.31,0-70.94,36.78-70.94,65.22M39.95,360.69c24.05-2,40.84,1.06,64.09,6.85,8.54,2.13,15.38,4.21,23.61,6.55,8.12,2.31,18.3,2.72,18.3,12.68,0,3.35-4.89,15.03-6.21,19.06-7.82,23.88-12.67,19.67-26.96,11.66-5.77-3.23-11.69-5.72-17.39-8.7-22.3-11.69-43.74-25.86-55.44-48.11ZM569.96,468.29c-.17-7.65-2.27-13.63-1.09-21.46.97-6.43,2.22-14.96,4.12-20.34,15.51-44.03,36.11-24.62,36.11-14.44,0,13.45-8.1,20.72-17.34,29.94-5.55,5.54-17.35,23.33-21.8,26.31Z"/></svg>